# xmcd
#
# Track frame offsets:
#	150
#	20544
#	33298
#	50278
#	65019
#	86940
#	103457
#	131962
#	152504
#	166470
#	187525
#
# Disc length: 3002 seconds
#
# Revision: 1
# Processed by: cddbd v1.5.2PL0 Copyright (c) Steve Scherf et al.
# Submitted via: audiograbber 1.83.01
#
DISCID=910bb80b
DTITLE=The Stormbirds - Wild Bird Food
DYEAR=2014
DGENRE=Blues
TTITLE0=I won't give it up
TTITLE1=Pilgrim
TTITLE2=Good that you went
TTITLE3=I was wrong
TTITLE4=Praise the waves
TTITLE5=Welcome stranger
TTITLE6=Seven hands
TTITLE7=Well of happiness
TTITLE8=Good people go
TTITLE9=Bring the girls to dance
TTITLE10=See you again
EXTD=
EXTT0=
EXTT1=
EXTT2=
EXTT3=
EXTT4=
EXTT5=
EXTT6=
EXTT7=
EXTT8=
EXTT9=
EXTT10=
PLAYORDER=
